<svg width="100" height="30" viewBox="0 0 100 30" fill="none" xmlns="http://www.w3.org/2000/svg">
<path d="M99.3362 26.3711C99.3362 26.7474 99.2627 27.1201 99.1199 27.4677C98.977 27.8154 98.7677 28.1312 98.5038 28.3971C98.2399 28.6631 97.9266 28.874 97.5819 29.0177C97.2371 29.1614 96.8677 29.2352 96.4947 29.2348H3.50442C2.75073 29.2356 2.02759 28.9344 1.49402 28.3974C0.960456 27.8603 0.660162 27.1315 0.65918 26.3711V3.53395C0.660161 2.77325 0.960337 2.04402 1.4938 1.5064C2.02725 0.968775 2.75039 0.666701 3.50442 0.666504H96.494C96.8672 0.666504 97.2367 0.740678 97.5815 0.88479C97.9263 1.0289 98.2396 1.24013 98.5035 1.50641C98.7674 1.77268 98.9766 2.08879 99.1194 2.43669C99.2622 2.78458 99.3356 3.15743 99.3355 3.53395L99.3362 26.3711Z" fill="white"/>
<path d="M96.4951 29.9H3.50486C2.5764 29.8998 1.68594 29.528 1.02886 28.8663C0.371784 28.2045 0.00176661 27.3068 0 26.3701L0 3.53366C0.00137352 2.59651 0.371146 1.69818 1.0282 1.03572C1.68526 0.373268 2.57594 0.000790987 3.50486 0L96.4944 0C97.4232 0.00118567 98.3137 0.37379 98.9706 1.03616C99.6276 1.69853 99.9975 2.59663 99.9993 3.53366V26.3701C100.001 28.3171 98.4258 29.9 96.4951 29.9Z" fill="#A6A6A6"/>
<path d="M99.3362 26.3711C99.3362 26.7474 99.2627 27.1201 99.1199 27.4677C98.977 27.8154 98.7677 28.1312 98.5038 28.3971C98.2399 28.6631 97.9266 28.874 97.5819 29.0177C97.2371 29.1614 96.8677 29.2352 96.4947 29.2348H3.50442C2.75073 29.2356 2.02759 28.9344 1.49402 28.3974C0.960456 27.8603 0.660162 27.1315 0.65918 26.3711V3.53395C0.660161 2.77325 0.960337 2.04402 1.4938 1.5064C2.02725 0.968775 2.75039 0.666701 3.50442 0.666504H96.494C96.8672 0.666504 97.2367 0.740678 97.5815 0.88479C97.9263 1.0289 98.2396 1.24013 98.5035 1.50641C98.7674 1.77268 98.9766 2.08879 99.1194 2.43669C99.2622 2.78458 99.3356 3.15743 99.3355 3.53395L99.3362 26.3711Z" fill="black"/>
<path d="M22.3295 14.793C22.308 12.3832 24.2853 11.2108 24.3757 11.1562C23.2559 9.50901 21.5201 9.28395 20.9102 9.26601C19.4523 9.11123 18.0382 10.1461 17.2956 10.1461C16.5382 10.1461 15.3946 9.28096 14.1621 9.30638C12.576 9.33106 11.0923 10.2575 10.2785 11.6961C8.59907 14.6293 9.8516 18.9398 11.4606 21.3108C12.2655 22.4727 13.206 23.7685 14.437 23.7229C15.6414 23.6735 16.0913 22.949 17.5446 22.949C18.9847 22.949 19.4071 23.7229 20.6626 23.6937C21.9552 23.6735 22.769 22.5273 23.5457 21.3557C24.4758 20.0255 24.8493 18.714 24.8642 18.6467C24.8345 18.6363 22.3547 17.6807 22.3295 14.793ZM19.9578 7.70629C20.6056 6.88905 21.0488 5.77721 20.9257 4.64893C19.9882 4.6908 18.8157 5.30317 18.1405 6.10247C17.5432 6.8068 17.0095 7.96126 17.1474 9.04693C18.2006 9.12619 19.2819 8.51083 19.9578 7.70629Z" fill="white"/>
<path d="M96.4947 0H46.6863L66.1954 29.9H96.4947C97.4234 29.8992 98.3138 29.5269 98.9709 28.8648C99.6279 28.2027 99.9978 27.3047 99.9996 26.3678V3.53366C99.998 2.59657 99.6282 1.69835 98.9712 1.03594C98.3141 0.373529 97.4236 0.000988405 96.4947 0Z" fill="url(#paint0_linear_1_679)"/>
<path d="M39.7735 23.5553H38.0904L37.1684 20.6325H33.9637L33.0854 23.5553H31.4468L34.6226 13.6048H36.5836L39.7735 23.5553ZM36.8905 19.4063L36.0567 16.808C35.9685 16.5426 35.8025 15.9175 35.5594 14.9335H35.5297C35.4319 15.3567 35.2755 15.9818 35.0613 16.808L34.2416 19.4063H36.8905ZM47.9246 19.8796C47.9246 21.0998 47.5963 22.0644 46.9389 22.7724C46.3504 23.4028 45.6189 23.7175 44.7466 23.7175C43.8046 23.7175 43.1272 23.3788 42.7158 22.6999V26.4646H41.1357V18.7386C41.1357 17.9722 41.1157 17.1863 41.0772 16.3803H42.4668L42.555 17.5176H42.5847C43.1116 16.6607 43.9113 16.2323 44.9845 16.2323C45.8234 16.2323 46.5238 16.5665 47.0841 17.2357C47.6437 17.9064 47.9246 18.7872 47.9246 19.8796ZM46.3148 19.9379C46.3148 19.2395 46.1592 18.6638 45.8464 18.2099C45.5048 17.7381 45.046 17.5019 44.4709 17.5019C44.081 17.5019 43.7268 17.6335 43.4103 17.8929C43.0931 18.1546 42.8856 18.4963 42.7885 18.9195C42.7451 19.0778 42.7205 19.2407 42.7151 19.4048V20.6018C42.7151 21.123 42.8737 21.5634 43.1909 21.9238C43.5081 22.2827 43.9202 22.4629 44.4271 22.4629C45.0223 22.4629 45.4855 22.2303 45.8168 21.769C46.1488 21.3062 46.3148 20.6961 46.3148 19.9379ZM56.1046 19.8796C56.1046 21.0998 55.7762 22.0644 55.1188 22.7724C54.5296 23.4028 53.7989 23.7175 52.9258 23.7175C51.9838 23.7175 51.3064 23.3788 50.8951 22.6999V26.4646H49.315V18.7386C49.315 17.9722 49.2949 17.1863 49.2564 16.3803H50.646L50.7342 17.5176H50.7639C51.2901 16.6607 52.0898 16.2323 53.1637 16.2323C54.0019 16.2323 54.7023 16.5665 55.2641 17.2357C55.8229 17.9064 56.1046 18.7872 56.1046 19.8796ZM54.4941 19.9379C54.4941 19.2395 54.3377 18.6638 54.0249 18.2099C53.6832 17.7381 53.226 17.5019 52.6508 17.5019C52.261 17.5019 51.9067 17.6335 51.5888 17.8929C51.2716 18.1546 51.0648 18.4963 50.9677 18.9195C50.9195 19.1169 50.8936 19.2777 50.8936 19.4048V20.6018C50.8936 21.123 51.0529 21.5634 51.3687 21.9238C51.6859 22.2819 52.0979 22.4629 52.6064 22.4629C53.2022 22.4629 53.6655 22.2303 53.996 21.769C54.328 21.3062 54.4941 20.6961 54.4941 19.9379ZM65.2502 20.7641C65.2502 21.6112 64.9568 22.2999 64.3735 22.8315C63.7316 23.4117 62.8356 23.7026 61.6868 23.7026C60.6255 23.7026 59.7747 23.4962 59.1329 23.0827L59.4982 21.7541C60.1912 22.1683 60.9524 22.3747 61.781 22.3747C62.3768 22.3747 62.8401 22.2386 63.1706 21.9687C63.5019 21.698 63.6694 21.3361 63.6694 20.8845C63.6694 20.48 63.5308 20.1413 63.2588 19.8654C62.9853 19.5902 62.5332 19.3337 61.8981 19.0982C60.1712 18.4485 59.307 17.4981 59.307 16.248C59.307 15.4315 59.6124 14.763 60.2216 14.2404C60.8308 13.7185 61.6387 13.4575 62.6437 13.4575C63.5412 13.4575 64.289 13.6153 64.8826 13.9301L64.4861 15.2296C63.9273 14.9245 63.2966 14.772 62.591 14.772C62.0337 14.772 61.5964 14.9103 61.2837 15.1855C61.0206 15.4315 60.8871 15.7313 60.8871 16.0872C60.8871 16.4797 61.0391 16.8057 61.3415 17.0615C61.6038 17.297 62.0826 17.5535 62.7748 17.8286C63.6242 18.174 64.2482 18.5763 64.6477 19.0384C65.0501 19.5005 65.2502 20.077 65.2502 20.7641ZM70.4879 17.5766H68.7462V21.0602C68.7462 21.9462 69.053 22.3881 69.6682 22.3881C69.9506 22.3881 70.1848 22.3642 70.37 22.3141L70.4138 23.5246C70.1025 23.642 69.6926 23.7011 69.185 23.7011C68.5609 23.7011 68.0733 23.5089 67.7212 23.1246C67.3707 22.7403 67.1943 22.0965 67.1943 21.1903V17.5736H66.1567V16.3773H67.1943V15.0636L68.7462 14.591V16.3773H70.4879V17.5766ZM78.3307 19.9087C78.3307 21.0116 78.0179 21.9171 77.3938 22.6251C76.7409 23.3542 75.8723 23.7175 74.7895 23.7175C73.7445 23.7175 72.9136 23.3684 72.2941 22.6707C71.6745 21.9716 71.3647 21.0908 71.3647 20.0284C71.3647 18.9165 71.6848 18.0058 72.323 17.2977C72.9626 16.5889 73.8238 16.2345 74.9066 16.2345C75.9501 16.2345 76.7883 16.5844 77.4227 17.2828C78.029 17.9602 78.3307 18.835 78.3307 19.9087ZM76.6927 19.9454C76.6927 19.2881 76.5519 18.7244 76.2695 18.2526C75.9382 17.6828 75.4639 17.3979 74.8495 17.3979C74.2166 17.3979 73.7311 17.6828 73.4006 18.2526C73.1175 18.7244 72.9766 19.2978 72.9766 19.9753C72.9766 20.6332 73.1175 21.1985 73.4006 21.6688C73.7422 22.2386 74.2188 22.5235 74.8362 22.5235C75.4402 22.5235 75.9138 22.2326 76.2562 21.6546C76.5467 21.1716 76.6927 20.6041 76.6927 19.9454ZM83.469 17.7822C83.3046 17.7523 83.1379 17.7376 82.9709 17.7381C82.4151 17.7381 81.9852 17.949 81.6828 18.3737C81.4205 18.7475 81.2885 19.2201 81.2885 19.7906V23.5553H79.7084V18.6399C79.7098 17.8867 79.6945 17.1335 79.6625 16.381H81.0388L81.0966 17.7538H81.1403C81.3078 17.282 81.5702 16.9015 81.9304 16.6166C82.2601 16.3676 82.6607 16.2328 83.0725 16.2323C83.2185 16.2323 83.3504 16.2427 83.4675 16.2614L83.469 17.7822ZM90.5358 19.6283C90.5398 19.8707 90.5204 20.1128 90.478 20.3514H85.7376C85.7554 21.0602 85.9852 21.603 86.4254 21.9769C86.8249 22.3104 87.3415 22.4778 87.9759 22.4778C88.6777 22.4778 89.3181 22.3657 89.8939 22.1391L90.1415 23.245C89.4685 23.5411 88.674 23.6884 87.7572 23.6884C86.6544 23.6884 85.7888 23.3609 85.1588 22.7074C84.5303 22.0531 84.2153 21.1738 84.2153 20.0725C84.2153 18.9913 84.5081 18.0903 85.0943 17.3718C85.708 16.6046 86.5373 16.221 87.5808 16.221C88.6058 16.221 89.3818 16.6046 89.9088 17.3718C90.326 17.9796 90.5358 18.7333 90.5358 19.6283ZM89.029 19.2149C89.0401 18.7416 88.9364 18.3341 88.7222 17.9894C88.4487 17.5452 88.0277 17.3239 87.4637 17.3239C86.9472 17.3239 86.5262 17.54 86.206 17.9737C85.9429 18.3184 85.7865 18.7326 85.7384 19.2134L89.029 19.2149Z" fill="white"/>
<path d="M33.5082 10.087C33.0687 10.087 32.6885 10.0653 32.3721 10.0287V5.21794C32.8147 5.14896 33.262 5.11496 33.7098 5.11625C35.5219 5.11625 36.3564 6.01574 36.3564 7.48199C36.3564 9.1733 35.3707 10.087 33.5082 10.087ZM33.7736 5.73311C33.529 5.73311 33.3207 5.74806 33.148 5.78395V9.44098C33.2414 9.45593 33.4208 9.46266 33.6728 9.46266C34.8601 9.46266 35.536 8.78075 35.536 7.50367C35.536 6.36492 34.9246 5.73311 33.7736 5.73311ZM38.9571 10.1236C37.9358 10.1236 37.274 9.35424 37.274 8.3097C37.274 7.22104 37.9499 6.44492 39.0149 6.44492C40.0214 6.44492 40.6981 7.17767 40.6981 8.25213C40.6981 9.35424 40.0006 10.1236 38.9571 10.1236ZM38.9868 7.01766C38.4257 7.01766 38.0663 7.54704 38.0663 8.28727C38.0663 9.01329 38.4331 9.54267 38.9793 9.54267C39.5256 9.54267 39.8924 8.97665 39.8924 8.27231C39.8924 7.55452 39.533 7.01766 38.9868 7.01766ZM46.5219 6.51745L45.4288 10.0436H44.7165L44.2637 8.51233C44.1511 8.13776 44.0573 7.75769 43.9828 7.37357H43.968C43.9109 7.75789 43.8027 8.14296 43.6878 8.51233L43.2061 10.0436H42.4864L41.4577 6.51745H42.2559L42.6517 8.1938C42.7451 8.59308 42.8236 8.96992 42.8889 9.32583H42.9037C42.9608 9.02899 43.0541 8.65813 43.1913 8.20128L43.6878 6.5182H44.3208L44.7958 8.16539C44.9107 8.56467 45.0041 8.95646 45.0767 9.32658H45.0975C45.1479 8.96394 45.2272 8.57887 45.3346 8.16539L45.7593 6.5182L46.5219 6.51745ZM50.5463 10.0436H49.7696V8.01884C49.7696 7.39526 49.5325 7.08271 49.0648 7.08271C48.6045 7.08271 48.2881 7.48199 48.2881 7.94631V10.0436H47.5114V7.52536C47.5114 7.21356 47.504 6.87934 47.4825 6.5167H48.1658L48.2021 7.06103H48.2236C48.4326 6.68419 48.8565 6.44492 49.3316 6.44492C50.0653 6.44492 50.5471 7.01094 50.5471 7.93211L50.5463 10.0436ZM52.6882 10.0436H51.9108V4.89941H52.6882V10.0436ZM55.5201 10.1236C54.4996 10.1236 53.837 9.35424 53.837 8.3097C53.837 7.22104 54.5129 6.44492 55.5772 6.44492C56.5844 6.44492 57.2603 7.17767 57.2603 8.25213C57.2611 9.35424 56.5629 10.1236 55.5201 10.1236ZM55.549 7.01766C54.988 7.01766 54.6285 7.54704 54.6285 8.28727C54.6285 9.01329 54.9962 9.54267 55.5409 9.54267C56.0879 9.54267 56.454 8.97665 56.454 8.27231C56.4547 7.55452 56.096 7.01766 55.549 7.01766ZM60.3227 10.0436L60.2664 9.63762H60.2457C60.0085 9.96437 59.6624 10.1236 59.2236 10.1236C58.5974 10.1236 58.1527 9.68099 58.1527 9.08582C58.1527 8.21549 58.9005 7.76537 60.1953 7.76537V7.70032C60.1953 7.23599 59.9514 7.00346 59.4697 7.00346C59.125 7.00346 58.8227 7.09094 58.5566 7.26515L58.3987 6.74999C58.7219 6.54661 59.1251 6.44492 59.5986 6.44492C60.5117 6.44492 60.9727 6.93093 60.9727 7.9037V9.20246C60.9727 9.55837 60.9883 9.83427 61.0231 10.0444L60.3227 10.0436ZM60.216 8.28727C59.3533 8.28727 58.9205 8.49812 58.9205 8.99834C58.9205 9.36845 59.1436 9.5494 59.4534 9.5494C59.8484 9.5494 60.216 9.24508 60.216 8.8316V8.28727ZM64.7444 10.0436L64.7081 9.47762H64.6866C64.4635 9.9053 64.0885 10.1236 63.5645 10.1236C62.7218 10.1236 62.0978 9.37593 62.0978 8.32391C62.0978 7.22104 62.7448 6.44417 63.6282 6.44417C64.0959 6.44417 64.4272 6.60344 64.6139 6.92345H64.6295V4.89941H65.407V9.09329C65.407 9.43425 65.4151 9.75352 65.4359 10.0436H64.7444ZM64.6295 7.96875C64.6295 7.47526 64.3056 7.0543 63.8113 7.0543C63.2354 7.0543 62.8834 7.56947 62.8834 8.29475C62.8834 9.00581 63.2488 9.49257 63.7957 9.49257C64.2841 9.49257 64.6295 9.06413 64.6295 8.55644V7.96875ZM70.3363 10.1236C69.3157 10.1236 68.6539 9.35424 68.6539 8.3097C68.6539 7.22104 69.3298 6.44492 70.3941 6.44492C71.4013 6.44492 72.0772 7.17767 72.0772 8.25213C72.078 9.35424 71.3806 10.1236 70.3363 10.1236ZM70.3652 7.01766C69.8049 7.01766 69.4454 7.54704 69.4454 8.28727C69.4454 9.01329 69.8123 9.54267 70.3578 9.54267C70.9048 9.54267 71.2709 8.97665 71.2709 8.27231C71.2724 7.55452 70.9129 7.01766 70.3652 7.01766ZM76.2543 10.0436H75.4769V8.01884C75.4769 7.39526 75.2397 7.08271 74.772 7.08271C74.3118 7.08271 73.9961 7.48199 73.9961 7.94631V10.0436H73.2186V7.52536C73.2186 7.21356 73.2112 6.87934 73.1897 6.5167H73.873L73.9093 7.06103H73.9308C74.1391 6.68419 74.5638 6.44417 75.0381 6.44417C75.7718 6.44417 76.2543 7.01019 76.2543 7.93136V10.0436ZM81.4801 7.10515H80.6256V8.81739C80.6256 9.2533 80.7753 9.47089 81.0777 9.47089C81.2148 9.47089 81.3297 9.45593 81.4223 9.43425L81.4438 10.0294C81.2933 10.0877 81.0917 10.1169 80.8412 10.1169C80.229 10.1169 79.8629 9.77595 79.8629 8.88319V7.10515H79.353V6.51745H79.8629V5.87143L80.6256 5.63889V6.5167H81.4801V7.10515ZM85.592 10.0436H84.816V8.0338C84.816 7.40273 84.5796 7.08346 84.1112 7.08346C83.7087 7.08346 83.3337 7.35937 83.3337 7.9179V10.0436H82.5577V4.89941H83.3337V7.01766H83.3493C83.5938 6.63334 83.9481 6.44417 84.4002 6.44417C85.1399 6.44417 85.592 7.02439 85.592 7.94631V10.0436ZM89.8046 8.46896H87.4737C87.4885 9.13666 87.9266 9.51351 88.5751 9.51351C88.9197 9.51351 89.2369 9.45518 89.517 9.34677L89.6378 9.8911C89.3073 10.0362 88.9182 10.1087 88.4654 10.1087C87.3722 10.1087 86.7252 9.41182 86.7252 8.33138C86.7252 7.2502 87.3877 6.43744 88.3779 6.43744C89.271 6.43744 89.8313 7.10515 89.8313 8.1138C89.8363 8.23283 89.8273 8.35205 89.8046 8.46896ZM89.0924 7.91042C89.0924 7.36609 88.8204 6.98177 88.3238 6.98177C87.8776 6.98177 87.5249 7.37357 87.4745 7.91042H89.0924Z" fill="white"/>
<defs>
<linearGradient id="paint0_linear_1_679" x1="73.3421" y1="29.9794" x2="73.3421" y2="-77.8545" gradientUnits="userSpaceOnUse">
<stop stop-color="#1A1A1A" stop-opacity="0.1"/>
<stop offset="0.123" stop-color="#212121" stop-opacity="0.151"/>
<stop offset="0.308" stop-color="#353535" stop-opacity="0.227"/>
<stop offset="0.532" stop-color="#575757" stop-opacity="0.318"/>
<stop offset="0.783" stop-color="#858585" stop-opacity="0.421"/>
<stop offset="1" stop-color="#B3B3B3" stop-opacity="0.51"/>
</linearGradient>
</defs>
</svg>
